<svg width="12" height="11" viewBox="0 0 12 11" fill="none" xmlns="http://www.w3.org/2000/svg">
<path d="M6.38059 1.42699L7.33284 3.4777C7.403 3.62628 7.5369 3.72945 7.69133 3.75238L9.83025 4.08622C9.95517 4.10502 10.0685 4.17564 10.1451 4.2834C10.2208 4.38979 10.2533 4.52461 10.2349 4.65713C10.22 4.76719 10.1716 4.86899 10.0976 4.94695L8.54775 6.55697C8.43439 6.66932 8.38306 6.83578 8.41043 6.99857L8.79202 9.26206C8.83266 9.53536 8.66368 9.79308 8.41043 9.8449C8.30605 9.86278 8.19911 9.84398 8.10499 9.79262L6.19707 8.72737C6.05547 8.65079 5.88821 8.65079 5.74661 8.72737L3.83869 9.79262C3.60426 9.92606 3.3138 9.83527 3.18332 9.58764C3.13498 9.48905 3.11787 9.3767 3.1337 9.2671L3.51528 7.00316C3.54266 6.84083 3.4909 6.67345 3.37796 6.5611L1.8281 4.95199C1.64372 4.76123 1.63816 4.44711 1.81569 4.24947C1.81954 4.24534 1.82382 4.24076 1.8281 4.23617C1.90168 4.15592 1.99836 4.10502 2.10274 4.09172L4.24166 3.75743C4.39567 3.73404 4.52956 3.63178 4.60015 3.48229L5.51818 1.42699C5.59988 1.2509 5.76929 1.1413 5.95323 1.14589H6.01056C6.17012 1.16653 6.30915 1.27245 6.38059 1.42699Z" fill="#FAC412"/>
<path d="M5.95962 8.67026C5.87677 8.67301 5.79606 8.69687 5.72347 8.73953L3.82487 9.80236C3.59257 9.92116 3.31457 9.82896 3.18432 9.59089C3.13607 9.49365 3.11856 9.38218 3.13479 9.27301L3.51399 7.01386C3.53961 6.84964 3.48837 6.68267 3.37691 6.56708L1.82635 4.95839C1.6423 4.76527 1.63888 4.4483 1.81909 4.2506C1.82166 4.24785 1.82379 4.24555 1.82635 4.24326C1.8998 4.16528 1.9946 4.1139 2.09667 4.09785L4.23739 3.76024C4.3924 3.73914 4.52692 3.63547 4.59524 3.48501L5.52575 1.40385C5.61415 1.23596 5.78368 1.13596 5.96303 1.14651C5.95962 1.28275 5.95962 8.5776 5.95962 8.67026Z" fill="#FAC412"/>
</svg>
