<svg width="12" height="11" viewBox="0 0 12 11" fill="none" xmlns="http://www.w3.org/2000/svg">
<path opacity="0.5" d="M6.2832 1.42699L7.35448 3.4777C7.43341 3.62628 7.58404 3.72945 7.75778 3.75238L10.1641 4.08622C10.3046 4.10502 10.4321 4.17564 10.5183 4.2834C10.6035 4.38979 10.64 4.52461 10.6193 4.65713C10.6025 4.76719 10.5481 4.86899 10.4649 4.94695L8.72125 6.55697C8.59372 6.66932 8.53597 6.83578 8.56677 6.99857L8.99605 9.26206C9.04177 9.53536 8.85168 9.79308 8.56677 9.8449C8.44934 9.86278 8.32903 9.84398 8.22315 9.79262L6.07674 8.72737C5.91744 8.65079 5.72927 8.65079 5.56997 8.72737L3.42356 9.79262C3.15983 9.92606 2.83306 9.83527 2.68627 9.58764C2.63189 9.48905 2.61264 9.3767 2.63045 9.2671L3.05973 7.00316C3.09053 6.84083 3.0323 6.67345 2.90524 6.5611L1.16164 4.95199C0.954221 4.76123 0.947965 4.44711 1.14769 4.24947C1.15202 4.24534 1.15683 4.24076 1.16164 4.23617C1.24442 4.15592 1.35318 4.10502 1.47061 4.09172L3.87691 3.75743C4.05016 3.73404 4.20079 3.63178 4.2802 3.48229L5.31298 1.42699C5.4049 1.2509 5.59548 1.1413 5.80242 1.14589H5.86691C6.04642 1.16653 6.20283 1.27245 6.2832 1.42699Z" fill="#FAC412"/>
<path d="M5.8096 8.67026C5.7164 8.67301 5.6256 8.69687 5.54393 8.73953L3.40802 9.80236C3.14667 9.92116 2.83392 9.82896 2.6874 9.59089C2.63311 9.49365 2.61341 9.38218 2.63167 9.27301L3.05827 7.01386C3.0871 6.84964 3.02945 6.68267 2.90406 6.56708L1.15968 4.95839C0.952623 4.76527 0.948779 4.4483 1.15151 4.2506C1.1544 4.24785 1.1568 4.24555 1.15968 4.24326C1.24231 4.16528 1.34896 4.1139 1.46378 4.09785L3.8721 3.76024C4.04649 3.73914 4.19782 3.63547 4.27468 3.48501L5.3215 1.40385C5.42095 1.23596 5.61167 1.13596 5.81345 1.14651C5.8096 1.28275 5.8096 8.5776 5.8096 8.67026Z" fill="#FAC412"/>
</svg>
