<svg width="11" height="11" viewBox="0 0 11 11" fill="none" xmlns="http://www.w3.org/2000/svg">
<path d="M6.04172 1.42699L6.99397 3.4777C7.06413 3.62628 7.19803 3.72945 7.35246 3.75238L9.49139 4.08622C9.6163 4.10502 9.72966 4.17564 9.80624 4.2834C9.88195 4.38979 9.91447 4.52461 9.89607 4.65713C9.8811 4.76719 9.83276 4.86899 9.75875 4.94695L8.20889 6.55697C8.09552 6.66932 8.04419 6.83578 8.07157 6.99857L8.45315 9.26206C8.49379 9.53536 8.32482 9.79308 8.07157 9.8449C7.96719 9.86278 7.86024 9.84398 7.76613 9.79262L5.8582 8.72737C5.71661 8.65079 5.54934 8.65079 5.40775 8.72737L3.49982 9.79262C3.2654 9.92606 2.97493 9.83527 2.84446 9.58764C2.79612 9.48905 2.779 9.3767 2.79483 9.2671L3.17642 7.00316C3.20379 6.84083 3.15203 6.67345 3.0391 6.5611L1.48923 4.95199C1.30485 4.76123 1.29929 4.44711 1.47682 4.24947C1.48067 4.24534 1.48495 4.24076 1.48923 4.23617C1.56281 4.15592 1.65949 4.10502 1.76387 4.09172L3.9028 3.75743C4.0568 3.73404 4.1907 3.63178 4.26128 3.48229L5.17931 1.42699C5.26102 1.2509 5.43042 1.1413 5.61437 1.14589H5.67169C5.83125 1.16653 5.97028 1.27245 6.04172 1.42699Z" fill="#FAC412"/>
<path d="M5.62075 8.67026C5.5379 8.67301 5.4572 8.69687 5.3846 8.73953L3.48601 9.80236C3.2537 9.92116 2.9757 9.82896 2.84545 9.59089C2.7972 9.49365 2.77969 9.38218 2.79592 9.27301L3.17512 7.01386C3.20075 6.84964 3.1495 6.68267 3.03805 6.56708L1.48749 4.95839C1.30343 4.76527 1.30002 4.4483 1.48023 4.2506C1.48279 4.24785 1.48492 4.24555 1.48749 4.24326C1.56094 4.16528 1.65574 4.1139 1.7578 4.09785L3.89852 3.76024C4.05353 3.73914 4.18805 3.63547 4.25638 3.48501L5.18688 1.40385C5.27528 1.23596 5.44481 1.13596 5.62417 1.14651C5.62075 1.28275 5.62075 8.5776 5.62075 8.67026Z" fill="#FAC412"/>
</svg>
