<svg width="11" height="11" viewBox="0 0 11 11" fill="none" xmlns="http://www.w3.org/2000/svg">
<path d="M6.21116 1.42699L7.16341 3.4777C7.23356 3.62628 7.36746 3.72945 7.52189 3.75238L9.66082 4.08622C9.78573 4.10502 9.8991 4.17564 9.97567 4.2834C10.0514 4.38979 10.0839 4.52461 10.0655 4.65713C10.0505 4.76719 10.0022 4.86899 9.92819 4.94695L8.37832 6.55697C8.26496 6.66932 8.21362 6.83578 8.241 6.99857L8.62258 9.26206C8.66322 9.53536 8.49425 9.79308 8.241 9.8449C8.13662 9.86278 8.02967 9.84398 7.93556 9.79262L6.02764 8.72737C5.88604 8.65079 5.71878 8.65079 5.57718 8.72737L3.66926 9.79262C3.43483 9.92606 3.14436 9.83527 3.01389 9.58764C2.96555 9.48905 2.94844 9.3767 2.96427 9.2671L3.34585 7.00316C3.37323 6.84083 3.32147 6.67345 3.20853 6.5611L1.65866 4.95199C1.47429 4.76123 1.46873 4.44711 1.64626 4.24947C1.65011 4.24534 1.65439 4.24076 1.65866 4.23617C1.73224 4.15592 1.82892 4.10502 1.9333 4.09172L4.07223 3.75743C4.22623 3.73404 4.36013 3.63178 4.43071 3.48229L5.34874 1.42699C5.43045 1.2509 5.59985 1.1413 5.7838 1.14589H5.84112C6.00069 1.16653 6.13972 1.27245 6.21116 1.42699Z" fill="#FAC412"/>
<path d="M5.79018 8.67026C5.70734 8.67301 5.62663 8.69687 5.55403 8.73953L3.65544 9.80236C3.42313 9.92116 3.14513 9.82896 3.01489 9.59089C2.96663 9.49365 2.94912 9.38218 2.96535 9.27301L3.34456 7.01386C3.37018 6.84964 3.31894 6.68267 3.20748 6.56708L1.65692 4.95839C1.47287 4.76527 1.46945 4.4483 1.64966 4.2506C1.65222 4.24785 1.65436 4.24555 1.65692 4.24326C1.73037 4.16528 1.82517 4.1139 1.92723 4.09785L4.06795 3.76024C4.22297 3.73914 4.35748 3.63547 4.42581 3.48501L5.35632 1.40385C5.44471 1.23596 5.61424 1.13596 5.7936 1.14651C5.79018 1.28275 5.79018 8.5776 5.79018 8.67026Z" fill="#FAC412"/>
</svg>
