<svg width="12" height="11" viewBox="0 0 12 11" fill="none" xmlns="http://www.w3.org/2000/svg">
<path d="M6.24353 1.42699L7.31481 3.4777C7.39373 3.62628 7.54437 3.72945 7.7181 3.75238L10.1244 4.08622C10.2649 4.10502 10.3925 4.17564 10.4786 4.2834C10.5638 4.38979 10.6004 4.52461 10.5797 4.65713C10.5628 4.76719 10.5084 4.86899 10.4252 4.94695L8.68158 6.55697C8.55405 6.66932 8.4963 6.83578 8.5271 6.99857L8.95638 9.26206C9.0021 9.53536 8.812 9.79308 8.5271 9.8449C8.40967 9.86278 8.28936 9.84398 8.18348 9.79262L6.03707 8.72737C5.87777 8.65079 5.6896 8.65079 5.5303 8.72737L3.38389 9.79262C3.12016 9.92606 2.79338 9.83527 2.6466 9.58764C2.59222 9.48905 2.57297 9.3767 2.59077 9.2671L3.02006 7.00316C3.05086 6.84083 2.99262 6.67345 2.86557 6.5611L1.12197 4.95199C0.914548 4.76123 0.908292 4.44711 1.10801 4.24947C1.11235 4.24534 1.11716 4.24076 1.12197 4.23617C1.20475 4.15592 1.31351 4.10502 1.43094 4.09172L3.83723 3.75743C4.01049 3.73404 4.16112 3.63178 4.24053 3.48229L5.27331 1.42699C5.36523 1.2509 5.55581 1.1413 5.76275 1.14589H5.82724C6.00675 1.16653 6.16316 1.27245 6.24353 1.42699Z" fill="#FAC412"/>
<path d="M5.76993 8.67026C5.67673 8.67301 5.58593 8.69687 5.50426 8.73953L3.36834 9.80236C3.107 9.92116 2.79425 9.82896 2.64772 9.59089C2.59344 9.49365 2.57374 9.38218 2.59199 9.27301L3.0186 7.01386C3.04743 6.84964 2.98978 6.68267 2.86439 6.56708L1.12001 4.95839C0.91295 4.76527 0.909106 4.4483 1.11184 4.2506C1.11472 4.24785 1.11713 4.24555 1.12001 4.24326C1.20264 4.16528 1.30929 4.1139 1.42411 4.09785L3.83242 3.76024C4.00681 3.73914 4.15814 3.63547 4.23501 3.48501L5.28183 1.40385C5.38128 1.23596 5.572 1.13596 5.77377 1.14651C5.76993 1.28275 5.76993 8.5776 5.76993 8.67026Z" fill="#FAC412"/>
</svg>
