<svg width="24" height="24" viewBox="0 0 24 24" fill="none" xmlns="http://www.w3.org/2000/svg">
<circle cx="12" cy="12" r="12" fill="#5EDB71"/>
<path opacity="0.2" d="M13.3191 8.95958C13.0595 8.91217 12.821 9.07595 12.7716 9.32647C12.7221 9.577 12.8884 9.82159 13.141 9.87062C13.9015 10.0172 14.4887 10.599 14.6375 11.3533V11.3538C14.6799 11.5709 14.8733 11.7288 15.096 11.7288C15.1259 11.7288 15.1558 11.7261 15.1862 11.7207C15.4388 11.6706 15.605 11.4265 15.5556 11.1755C15.3334 10.0489 14.4561 9.17886 13.3191 8.95958Z" fill="white"/>
<path opacity="0.2" d="M13.2851 7.0824C13.1635 7.06516 13.0412 7.10072 12.944 7.17722C12.844 7.2548 12.7816 7.36686 12.768 7.49239C12.7392 7.74614 12.9244 7.97565 13.1808 8.00421C14.949 8.19924 16.3234 9.56067 16.5222 11.3138C16.5488 11.5487 16.7482 11.7259 16.9861 11.7259C17.004 11.7259 17.0214 11.7248 17.0393 11.7227C17.1637 11.7092 17.2745 11.6483 17.3528 11.5514C17.4304 11.4544 17.4657 11.3337 17.4516 11.2103C17.2039 9.02299 15.4911 7.32538 13.2851 7.0824Z" fill="white"/>
<path fill-rule="evenodd" clip-rule="evenodd" d="M11.4717 12.9938C13.6476 15.1438 14.1412 12.6565 15.5266 14.0248C16.8622 15.3446 17.6298 15.609 15.9376 17.2811C15.7257 17.4494 14.3789 19.4751 9.64603 14.7984C4.91255 10.1211 6.96076 8.78865 7.13115 8.5792C8.82745 6.90247 9.09036 7.66562 10.426 8.98537C11.8114 10.3543 9.29588 10.8438 11.4717 12.9938Z" fill="white"/>
</svg>
