<svg width="14" height="14" viewBox="0 0 14 14" fill="none" xmlns="http://www.w3.org/2000/svg">
<circle cx="7" cy="7" r="7" fill="#FF6838"/>
<path d="M8.01 11C7.94333 11 7.88667 10.98 7.84 10.94C7.8 10.8933 7.78 10.8367 7.78 10.77V9.33H4.54C4.47333 9.33 4.41667 9.31 4.37 9.27C4.33 9.22333 4.31 9.16667 4.31 9.1V8.7C4.31 8.6 4.34667 8.5 4.42 8.4L7.42 4.17C7.45333 4.11667 7.50333 4.07667 7.57 4.05C7.63667 4.01667 7.71 4 7.79 4H8.51C8.57667 4 8.63 4.02333 8.67 4.07C8.71667 4.11 8.74 4.16333 8.74 4.23V8.46H9.64C9.70667 8.46 9.76333 8.48333 9.81 8.53C9.85667 8.57 9.88 8.62333 9.88 8.69V9.1C9.88 9.16667 9.85667 9.22333 9.81 9.27C9.77 9.31 9.71667 9.33 9.65 9.33H8.74V10.77C8.74 10.8367 8.71667 10.8933 8.67 10.94C8.63 10.98 8.57667 11 8.51 11H8.01ZM7.79 8.48V5.05L5.38 8.48H7.79Z" fill="white"/>
</svg>
