<svg width="72" height="70" viewBox="0 0 72 70" fill="none" xmlns="http://www.w3.org/2000/svg">
<g filter="url(#filter0_d)">
<rect x="11" y="18.9961" width="40.0706" height="38.2492" rx="6" transform="rotate(-17.4199 11 18.9961)" fill="url(#paint0_linear)"/>
<g filter="url(#filter1_d)">
<ellipse rx="8.70017" ry="8.65476" transform="matrix(0.996282 -0.0861532 0.0881726 0.996105 34.0623 30.31)" fill="white"/>
<path d="M45.2148 40.6918C44.8771 40.7102 44.5448 40.6009 44.2845 40.386L42.0219 38.192C41.5466 37.8323 41.4508 37.1594 41.807 36.6834C41.9757 36.4823 42.2181 36.3565 42.4806 36.3338C42.7431 36.3111 43.0039 36.3934 43.2054 36.5625L45.9676 38.3809C46.3728 38.7249 46.5369 39.2734 46.3868 39.7813C46.2366 40.2892 45.8001 40.6615 45.2725 40.7318L45.2148 40.6918Z" fill="white"/>
</g>
</g>
<defs>
<filter id="filter0_d" x="0.519455" y="0.519531" width="70.6446" height="69.4521" filterUnits="userSpaceOnUse" color-interpolation-filters="sRGB">
<feFlood flood-opacity="0" result="BackgroundImageFix"/>
<feColorMatrix in="SourceAlpha" type="matrix" values="0 0 0 0 0 0 0 0 0 0 0 0 0 0 0 0 0 0 127 0" result="hardAlpha"/>
<feOffset dy="4"/>
<feGaussianBlur stdDeviation="6"/>
<feComposite in2="hardAlpha" operator="out"/>
<feColorMatrix type="matrix" values="0 0 0 0 0 0 0 0 0 0 0 0 0 0 0 0 0 0 0.12 0"/>
<feBlend mode="normal" in2="BackgroundImageFix" result="effect1_dropShadow"/>
<feBlend mode="normal" in="SourceGraphic" in2="effect1_dropShadow" result="shape"/>
</filter>
<filter id="filter1_d" x="13.3604" y="13.656" width="45.0813" height="43.0758" filterUnits="userSpaceOnUse" color-interpolation-filters="sRGB">
<feFlood flood-opacity="0" result="BackgroundImageFix"/>
<feColorMatrix in="SourceAlpha" type="matrix" values="0 0 0 0 0 0 0 0 0 0 0 0 0 0 0 0 0 0 127 0" result="hardAlpha"/>
<feOffset dy="4"/>
<feGaussianBlur stdDeviation="6"/>
<feComposite in2="hardAlpha" operator="out"/>
<feColorMatrix type="matrix" values="0 0 0 0 0 0 0 0 0 0 0 0 0 0 0 0 0 0 0.06 0"/>
<feBlend mode="normal" in2="BackgroundImageFix" result="effect1_dropShadow"/>
<feBlend mode="normal" in="SourceGraphic" in2="effect1_dropShadow" result="shape"/>
</filter>
<linearGradient id="paint0_linear" x1="8.19408" y1="39.5471" x2="65.608" y2="35.4306" gradientUnits="userSpaceOnUse">
<stop stop-color="#47C2FF"/>
<stop offset="1" stop-color="#63CBFE" stop-opacity="0.65"/>
</linearGradient>
</defs>
</svg>
