<svg width="25" height="24" viewBox="0 0 25 24" fill="none" xmlns="http://www.w3.org/2000/svg">
<path fill-rule="evenodd" clip-rule="evenodd" d="M3.94892 5.31825L11.5167 1.21796C14.4757 -0.385262 17.5954 0.593649 19.2893 3.64775L23.1984 10.6963C24.888 13.7427 24.0453 16.8695 21.0863 18.4728L13.5185 22.5731C10.5595 24.1763 7.43058 23.2012 5.74107 20.1549L1.83188 13.1063C0.138061 10.0522 0.989896 6.92148 3.94892 5.31825ZM17.4611 13.4918C17.6793 13.3736 17.8354 13.1432 17.8427 12.8699C17.8668 12.4631 17.542 12.123 17.1229 12.1043L13.0012 11.9589L10.7901 7.97218C10.5944 7.61931 10.1432 7.48119 9.77658 7.67982C9.41871 7.87372 9.28509 8.32871 9.48079 8.68157L11.8976 13.0393C12.022 13.2636 12.2638 13.4131 12.5268 13.4164L17.0681 13.5814C17.2111 13.5936 17.3477 13.5533 17.4611 13.4918Z" fill="white"/>
</svg>
