<svg width="20" height="20" viewBox="0 0 20 20" fill="none" xmlns="http://www.w3.org/2000/svg">
<path d="M9.98446 6.7618C8.19412 6.7618 6.73307 8.22285 6.73307 10.0132C6.73307 11.8035 8.19412 13.2646 9.98446 13.2646C11.7748 13.2646 13.2358 11.8035 13.2358 10.0132C13.2358 8.22285 11.7748 6.7618 9.98446 6.7618ZM19.7362 10.0132C19.7362 8.66677 19.7484 7.33256 19.6728 5.98859C19.5971 4.42753 19.241 3.0421 18.0995 1.90058C16.9555 0.756617 15.5725 0.40294 14.0115 0.327327C12.6651 0.251713 11.3309 0.263909 9.9869 0.263909C8.64049 0.263909 7.30627 0.251713 5.9623 0.327327C4.40125 0.40294 3.01581 0.759056 1.87429 1.90058C0.73033 3.04454 0.376653 4.42753 0.30104 5.98859C0.225426 7.335 0.237622 8.66921 0.237622 10.0132C0.237622 11.3572 0.225426 12.6938 0.30104 14.0378C0.376653 15.5988 0.732769 16.9843 1.87429 18.1258C3.01825 19.2697 4.40125 19.6234 5.9623 19.699C7.30871 19.7747 8.64293 19.7625 9.9869 19.7625C11.3333 19.7625 12.6675 19.7747 14.0115 19.699C15.5725 19.6234 16.958 19.2673 18.0995 18.1258C19.2435 16.9818 19.5971 15.5988 19.6728 14.0378C19.7508 12.6938 19.7362 11.3596 19.7362 10.0132ZM9.98446 15.0159C7.21602 15.0159 4.98177 12.7816 4.98177 10.0132C4.98177 7.24475 7.21602 5.01049 9.98446 5.01049C12.7529 5.01049 14.9872 7.24475 14.9872 10.0132C14.9872 12.7816 12.7529 15.0159 9.98446 15.0159ZM15.192 5.97395C14.5457 5.97395 14.0237 5.45198 14.0237 4.8056C14.0237 4.15923 14.5457 3.63725 15.192 3.63725C15.8384 3.63725 16.3604 4.15923 16.3604 4.8056C16.3606 4.95909 16.3305 5.1111 16.2718 5.25294C16.2132 5.39478 16.1271 5.52365 16.0186 5.63218C15.9101 5.74071 15.7812 5.82676 15.6394 5.88541C15.4975 5.94406 15.3455 5.97415 15.192 5.97395Z" fill="#363853"/>
</svg>
