<svg width="21" height="17" viewBox="0 0 21 17" fill="none" xmlns="http://www.w3.org/2000/svg">
<path d="M20.7632 2.27041C20.0084 2.59603 19.1869 2.83037 18.3408 2.92165C19.2193 2.39976 19.8771 1.57526 20.1909 0.602846C19.3666 1.09322 18.4635 1.43708 17.5218 1.61917C17.1282 1.1984 16.6522 0.863192 16.1234 0.634439C15.5946 0.405686 15.0243 0.288288 14.4482 0.289561C12.1171 0.289561 10.2423 2.17914 10.2423 4.49794C10.2423 4.82356 10.2817 5.14917 10.3459 5.46246C6.85535 5.27992 3.74224 3.61235 1.67258 1.05921C1.29547 1.70333 1.09785 2.43674 1.10028 3.18313C1.10028 4.64348 1.84279 5.93115 2.97506 6.68846C2.3078 6.66218 1.65616 6.47878 1.07315 6.15317V6.20497C1.07315 8.24995 2.5187 9.94465 4.44528 10.3344C4.08354 10.4284 3.71142 10.4764 3.33768 10.4775C3.06386 10.4775 2.80485 10.4503 2.54337 10.4133C3.0762 12.0809 4.62782 13.2921 6.47546 13.3316C5.02991 14.4638 3.21927 15.1299 1.25323 15.1299C0.900472 15.1299 0.574853 15.1175 0.2369 15.0781C2.10181 16.2745 4.31454 16.9652 6.69747 16.9652C14.4334 16.9652 18.6664 10.5564 18.6664 4.99377C18.6664 4.81122 18.6664 4.62868 18.6541 4.44613C19.4731 3.8467 20.1909 3.10419 20.7632 2.27041Z" fill="#363853"/>
</svg>
